<svg width="24" height="24" viewBox="0 0 24 24" fill="none" xmlns="http://www.w3.org/2000/svg">
<path fill-rule="evenodd" clip-rule="evenodd" d="M20.5732 12.3344C20.2273 11.739 19.334 10.3497 17.8966 9.10509C17.6186 8.86372 17.5886 8.44243 17.8293 8.16449C18.07 7.88651 18.4914 7.85585 18.7699 8.09722C20.8786 9.92327 21.9293 12.0351 21.9293 12.0351C22.0234 12.2225 22.0234 12.4438 21.9293 12.6311C21.9293 12.6311 18.6107 19.2216 12.0002 19.2216C10.6763 19.2216 9.48297 18.9595 8.42092 18.5382C8.07895 18.4029 7.91155 18.0149 8.04696 17.6729C8.18297 17.3309 8.57031 17.1635 8.91301 17.2989C9.82909 17.6623 10.8577 17.8882 12.0004 17.8882C17.0342 17.8882 19.8864 13.5298 20.5736 12.3343L20.5732 12.3344ZM14.5447 11.5331C14.624 11.7858 14.6667 12.0544 14.6667 12.3331C14.6667 13.8051 13.4721 14.9997 12.0001 14.9997C11.7213 14.9997 11.4527 14.957 11.2001 14.8777C10.8495 14.767 10.4748 14.9624 10.3641 15.3137C10.2533 15.6643 10.4487 16.039 10.8001 16.1497C11.1788 16.2683 11.582 16.333 12.0001 16.333C14.2073 16.333 16 14.5403 16 12.3331C16 11.915 15.9353 11.5118 15.8167 11.1331C15.706 10.7817 15.3314 10.5863 14.9807 10.6971C14.6294 10.8078 14.434 11.1823 14.5447 11.5331L14.5447 11.5331Z" fill="white" fill-opacity="0.87"/>
<path fill-rule="evenodd" clip-rule="evenodd" d="M16.7239 6.66625L18.1951 5.19498C18.4551 4.93501 18.8779 4.93501 19.1378 5.19498C19.3978 5.45494 19.3978 5.87772 19.1378 6.13768L17.3118 7.96373C17.3072 7.96908 17.3018 7.97444 17.2965 7.97905L7.6447 17.6308C7.64008 17.6362 7.63473 17.6415 7.62937 17.6461L5.80469 19.4708C5.54472 19.7308 5.12195 19.7308 4.86199 19.4708C4.60203 19.2109 4.60202 18.7881 4.86199 18.5281L6.11928 17.2708C3.41868 15.3329 2.07054 12.6309 2.07054 12.6309C1.97649 12.4435 1.97649 12.2222 2.07054 12.0349C2.07054 12.0349 5.38911 5.44441 11.9996 5.44441C13.8236 5.44441 15.399 5.94174 16.7234 6.66642L16.7239 6.66625ZM15.7352 7.65493C14.6645 7.12754 13.4199 6.77756 11.9999 6.77756C6.96528 6.77756 4.11349 11.1368 3.42663 12.3314C3.84389 13.0521 5.06129 14.9341 7.07603 16.3143L8.74002 14.6503C8.27396 13.9963 7.99998 13.1963 7.99998 12.333C7.99998 10.1258 9.7927 8.33306 12 8.33306C12.8634 8.33306 13.6634 8.60701 14.3172 9.07309L15.7352 7.65508L15.7352 7.65493ZM13.3538 10.0356C12.9571 9.80089 12.4938 9.66622 11.9998 9.66622C10.5277 9.66622 9.33312 10.8608 9.33312 12.3329C9.33312 12.8269 9.46779 13.2902 9.70246 13.6869L13.3538 10.0356Z" fill="white" fill-opacity="0.87"/>
</svg>
