<svg width="24" height="24" viewBox="0 0 24 24" fill="none" xmlns="http://www.w3.org/2000/svg">
<path fill-rule="evenodd" clip-rule="evenodd" d="M12.5928 2.21983C12.252 1.92672 11.7481 1.92672 11.4073 2.21983L2.31634 10.038C1.93568 10.3654 1.89247 10.9394 2.21985 11.32C2.54722 11.7007 3.1212 11.7439 3.50187 11.4165L3.81818 11.1445V19.2727C3.81818 19.996 4.10552 20.6897 4.61698 21.2012C5.12844 21.7127 5.82214 22 6.54545 22H9.27274H14.7273H17.4545C18.1779 22 18.8716 21.7127 19.383 21.2012C19.8945 20.6897 20.1818 19.996 20.1818 19.2727V11.1445L20.4982 11.4165C20.8788 11.7439 21.4528 11.7007 21.7802 11.32C22.1076 10.9394 22.0644 10.3654 21.6837 10.038L12.5928 2.21983ZM18.3636 9.58084L12 4.10813L5.63636 9.58087V19.2727C5.63636 19.5138 5.73214 19.7451 5.90263 19.9156C6.07312 20.086 6.30435 20.1818 6.54545 20.1818H8.36365V12C8.36365 11.4979 8.77067 11.0909 9.27274 11.0909H14.7273C15.2294 11.0909 15.6364 11.4979 15.6364 12V20.1818H17.4545C17.6957 20.1818 17.9269 20.086 18.0974 19.9156C18.2679 19.7451 18.3636 19.5138 18.3636 19.2727V9.58084ZM13.8182 20.1818V12.9091H10.1818V20.1818H13.8182Z" fill="#233B67"/>
</svg>
