<svg width="24" height="24" viewBox="0 0 24 24" fill="none" xmlns="http://www.w3.org/2000/svg">
<path fill-rule="evenodd" clip-rule="evenodd" d="M7.13838 11.4737C7.13838 12.055 7.60966 12.5263 8.19101 12.5263C8.77237 12.5263 9.24364 12.055 9.24364 11.4737V9.36842H15.5594V11.4737C15.5594 12.055 16.0307 12.5263 16.6121 12.5263C17.1934 12.5263 17.6647 12.055 17.6647 11.4737V9.37007C18.2229 9.37395 18.631 9.38682 18.957 9.42916C19.3789 9.48394 19.518 9.57267 19.5982 9.64644C19.6784 9.72021 19.7783 9.85149 19.868 10.2673C19.9639 10.7127 20.0166 11.3195 20.0953 12.2641L20.6362 18.7547C20.6832 19.319 20.707 19.6332 20.695 19.8527L20.6946 19.861L20.6863 19.8622C20.4686 19.8923 20.1535 19.8947 19.5872 19.8947H5.21584C4.64953 19.8947 4.33444 19.8923 4.11676 19.8622L4.10847 19.861L4.10799 19.8527C4.09602 19.6332 4.11982 19.319 4.16685 18.7547L4.70773 12.2641C4.78645 11.3195 4.8391 10.7127 4.93508 10.2673C5.0247 9.85149 5.12467 9.72021 5.20485 9.64644C5.28502 9.57267 5.42415 9.48394 5.84599 9.42916C6.17208 9.38682 6.58013 9.37395 7.13838 9.37007L7.13838 11.4737ZM9.24364 7.26316L15.5594 7.26315C15.5594 5.5191 14.1456 4.10526 12.4015 4.10526C10.6575 4.10526 9.24364 5.5191 9.24364 7.26315V7.26316ZM17.6647 7.2645V7.26315C17.6647 4.35639 15.3083 2 12.4015 2C9.49478 2 7.13838 4.35639 7.13838 7.26315V7.2645C6.5461 7.2684 6.02115 7.28348 5.57489 7.34143C4.92622 7.42566 4.30348 7.61495 3.77936 8.09721C3.25523 8.57948 3.01488 9.18435 2.87707 9.82378C2.74886 10.4187 2.68683 11.1635 2.6152 12.0237L2.60974 12.0892L2.06886 18.5798L2.06383 18.6401C2.02365 19.1211 1.98496 19.5843 2.00586 19.9673C2.02927 20.3966 2.13281 20.8966 2.52262 21.3202C2.91242 21.7439 3.40205 21.8886 3.82793 21.9475C4.20788 22.0002 4.67265 22.0001 5.15535 22L5.21584 22H19.5872L19.6477 22C20.1304 22.0001 20.5952 22.0002 20.9751 21.9475C21.401 21.8886 21.8906 21.7439 22.2804 21.3202C22.6702 20.8966 22.7738 20.3966 22.7972 19.9673C22.8181 19.5843 22.7794 19.1212 22.7392 18.6402V18.6401L22.7342 18.5798L22.1878 12.0237L22.1878 12.0236C22.1162 11.1635 22.0542 10.4187 21.926 9.82378C21.7882 9.18435 21.5478 8.57948 21.0237 8.09721C20.4996 7.61495 19.8768 7.42566 19.2281 7.34143C18.7819 7.28348 18.257 7.26841 17.6647 7.2645Z" fill="#0F141D"/>
</svg>
