<svg width="24" height="24" viewBox="0 0 24 24" fill="none" xmlns="http://www.w3.org/2000/svg">
<path fill-rule="evenodd" clip-rule="evenodd" d="M12 5C5.38912 5 2.07054 11.5907 2.07054 11.5907C1.97649 11.778 1.97649 11.9993 2.07054 12.1867C2.07054 12.1867 5.38924 18.7774 12 18.7774C18.6108 18.7774 21.9295 12.1867 21.9295 12.1867C22.0235 11.9993 22.0235 11.778 21.9295 11.5907C21.9295 11.5907 18.6108 5 12 5V5ZM20.5744 11.889C19.8891 10.6962 17.0363 6.33338 12 6.33338C6.96369 6.33338 4.11099 10.6962 3.42563 11.889C4.11091 13.0817 6.96369 17.4446 12 17.4446C17.0363 17.4446 19.889 13.0818 20.5744 11.889V11.889Z" fill="white" fill-opacity="0.87"/>
<path fill-rule="evenodd" clip-rule="evenodd" d="M12.0001 7.88876C9.79278 7.88876 8 9.68154 8 11.8889C8 14.0962 9.79278 15.889 12.0001 15.889C14.2075 15.889 16.0003 14.0962 16.0003 11.8889C16.0003 9.68154 14.2075 7.88876 12.0001 7.88876ZM12.0001 9.22214C13.4722 9.22214 14.6669 10.4168 14.6669 11.8889C14.6669 13.361 13.4722 14.5556 12.0001 14.5556C10.528 14.5556 9.33338 13.361 9.33338 11.8889C9.33338 10.4168 10.528 9.22214 12.0001 9.22214Z" fill="white" fill-opacity="0.87"/>
</svg>
