<svg width="24" height="24" viewBox="0 0 24 24" fill="none" xmlns="http://www.w3.org/2000/svg">
<path fill-rule="evenodd" clip-rule="evenodd" d="M9.20977 7.42083C9.20977 5.62453 10.666 4.16833 12.4623 4.16833C14.2586 4.16833 15.7148 5.62453 15.7148 7.42083C15.7148 9.21714 14.2586 10.6733 12.4623 10.6733C10.666 10.6733 9.20977 9.21714 9.20977 7.42083ZM12.4623 2C9.46843 2 7.04144 4.42699 7.04144 7.42083C7.04144 10.4147 9.46843 12.8417 12.4623 12.8417C15.4561 12.8417 17.8831 10.4147 17.8831 7.42083C17.8831 4.42699 15.4561 2 12.4623 2ZM12.4623 15.01C10.3812 15.01 8.33572 15.5237 6.64149 16.4987C4.9479 17.4734 3.66015 18.8807 3.0635 20.5508C2.86205 21.1146 3.15584 21.7351 3.71971 21.9365C4.28357 22.138 4.90398 21.8442 5.10543 21.2803C5.4971 20.184 6.38714 19.1469 7.72304 18.3781C9.05831 17.6096 10.7247 17.1783 12.4623 17.1783C14.1998 17.1783 15.8662 17.6096 17.2015 18.3781C18.5374 19.1469 19.4274 20.184 19.8191 21.2803C20.0205 21.8442 20.6409 22.138 21.2048 21.9365C21.7687 21.7351 22.0625 21.1146 21.861 20.5508C21.2644 18.8807 19.9766 17.4734 18.283 16.4987C16.5888 15.5237 14.5433 15.01 12.4623 15.01Z" fill="#0F141D"/>
</svg>
